solid 
 facet normal  1.000000e+00  0.000000e+00  0.000000e+00
   outer loop
     vertex  1.174972e-03 -1.013857e-03  0.000000e+00
     vertex  1.174972e-03 -1.119382e-03  2.000000e-05
     vertex  1.174972e-03 -1.119382e-03  0.000000e+00
   endloop
 endfacet
 facet normal  1.000000e+00  0.000000e+00 -0.000000e+00
   outer loop
     vertex  1.174972e-03 -1.013857e-03  0.000000e+00
     vertex  1.174972e-03 -1.013857e-03  2.000000e-05
     vertex  1.174972e-03 -1.119382e-03  2.000000e-05
   endloop
 endfacet
endsolid
